<?xml version="1.0" encoding="UTF-8"?>
<!DOCTYPE svg PUBLIC "-//W3C//DTD SVG 1.1//EN" "http://www.w3.org/Graphics/SVG/1.1/DTD/svg11.dtd">
<!-- Creator: CorelDRAW 2021.5 -->
<svg xmlns="http://www.w3.org/2000/svg" xml:space="preserve" width="1.34952in" height="1.41565in" version="1.1" style="shape-rendering:geometricPrecision; text-rendering:geometricPrecision; image-rendering:optimizeQuality; fill-rule:evenodd; clip-rule:evenodd"
viewBox="0 0 426.86 447.78"
 xmlns:xlink="http://www.w3.org/1999/xlink"
 xmlns:xodm="http://www.corel.com/coreldraw/odm/2003">
 <defs>
  <style type="text/css">
   <![CDATA[
    .fil0 {fill:#3871C1}
    .fil1 {fill:#FDFDFF}
   ]]>
  </style>
 </defs>
 <g id="Layer_x0020_1">
  <metadata id="CorelCorpID_0Corel-Layer"/>
  <g id="_2666072601376">
   <path class="fil0" d="M200.84 365.03c-0.47,-2.36 -1.39,-1.31 0.31,-3.81 1.88,-2.77 6.59,-2.28 8.45,0.89 1.17,1.99 -0.22,2.48 1.13,5.02 3.55,0 5.53,1.2 8.63,1.26 0.21,-1.36 -0.28,-1.94 -0.32,-3.77 -0.02,-0.95 0.04,-1.55 -0.07,-2.56 0,-0 -0.19,-1.13 -0.19,-1.15 -0.24,-0.96 0.02,-0.35 -0.35,-0.92l-18.4 -4.71c-5.94,-1.49 -12.44,-3.23 -18.6,-4.5 -9.12,-1.88 -19.35,-4.48 -28.47,-5.98l-10.14 -1.62c0.57,-1.08 0.98,-2.25 1.54,-3.5l24.2 -56.03c8.63,-20.15 17.18,-39.74 25.81,-59.88l15.96 -36.97c10.61,-24.75 22.02,-50.21 32.28,-74.83 0.79,-1.9 2.98,-6.05 3.12,-7.8 2.08,0.17 5.75,2.54 7.92,3.42 4.1,1.66 21.78,10.64 24.42,10.86l-37.13 47.3c-4.2,6.08 -10.89,15.55 -14.51,21.61 -9.54,15.98 -11.37,18.68 -19.34,34.85l-5.77 12.71c-13.02,32.76 -16.57,63.03 3.22,96.1 0.78,1.31 1.36,2.28 2.3,3.58 0.96,1.32 1.67,2.44 2.66,3.64 8.97,10.87 13.48,15.41 25.64,23.08 2.46,1.55 6.87,3.49 7.64,4.54 -1.81,-0.04 -2.28,-0.46 -3.81,-0.81 -1.59,-0.36 -2.51,-0.56 -4.08,-0.96 -2.29,-0.57 -5.7,-1.84 -8.23,-2.02l1.85 7.91c0.86,0.49 10.13,2.22 11.8,2.56 2.03,0.4 3.86,0.66 6.01,1.13 1.76,0.38 4.87,0.89 6.13,1.33 2.66,-3.85 -0.51,-25.51 8.92,-14.29 2.54,3.02 1.54,1.94 3.49,5.34 1.26,2.2 1.85,3.21 3.01,5.81 1.01,2.25 1.4,5.11 2.39,7.02 2.64,0.26 6.69,1.46 9.18,2 3.42,0.73 6.42,1.51 9.62,2.21l-0.44 -4.2 -15.17 -4.62c2.51,0 4.12,0.43 7.14,0.42 2.64,-0.01 5.38,0.18 7.98,-0.13 0.81,-1.43 0.05,-3.99 -0.03,-5.75 -0.07,-1.39 0.4,-5.98 0.62,-7.38 0.99,-6.13 -0.22,-7.68 3.09,-12.86 4.24,0.55 6.58,4.75 7.03,9.24 0.61,6.1 -0.59,11.39 -0.29,15.62l1.33 -0.42c1.56,-0.6 0.97,-1.13 1.98,-2.63l3.9 -5.34c2.82,-4.31 4.62,-5.24 9.21,-5.57 2.84,-0.21 3.37,-0.07 4.89,1.53 1.96,2.07 1.64,2.42 -1.39,4.56 -0.9,0.64 -1.9,1.9 -2.42,2.84l6.14 -2.47c1.09,-0.51 0.86,-0.44 1.92,-1.02 5.82,-3.21 8.69,-4.45 14.59,-8.93 2.43,-1.84 4.12,-3.6 6.53,-5.23 1.01,-2.49 0.51,-2.71 3.36,-3.37l4.31 -4.93c1.58,-1.7 2.78,-3.24 4.16,-5.09 2.74,-3.67 5.09,-7.32 7.36,-11.54 10.08,-18.72 13.3,-42.22 9.07,-63.4 -1.1,-5.5 -2.65,-9.66 -4.86,-14.04 -2.29,-4.55 -4.5,-7.46 -7.95,-10.95 -18.07,-18.27 -47.44,2.67 -33.64,29.86 5.25,10.34 3.77,20.64 -2.2,29.44 -3.28,4.83 -9.73,10.96 -14.88,13.69 0.22,-0.82 4.29,-6.3 6.18,-11.04 4.75,-11.89 0.62,-22.4 -9.87,-28.96 -1.48,-0.92 -4.32,-2.71 -5.97,-2.85 13.23,25 -36.4,44.17 -53.72,-3.83 -7.81,-21.65 -7.42,-43.35 -2.32,-65.65 2.6,-11.38 8.08,-27.98 13.05,-38.62l4.48 -9.8c1.15,-2.29 2.14,-4.27 3.22,-6.44 3.01,-6.03 10.63,-19.12 13.86,-23.94 12.46,5.98 55.43,21.86 67.15,26.1 23.25,8.41 46.3,14.14 71.11,16.68 1.72,0.18 4.11,0.46 5.39,0.49l2.52 42.85c0.09,1.83 0.33,1.53 0.42,3.36 0.11,2.22 -0.39,4.36 0.84,6.3l0 -58.81c-4.39,-0.36 -9.85,-1.26 -13.9,-2.06 -4.75,-0.95 -8.94,-1.64 -13.57,-2.81 -4.48,-1.14 -8.65,-1.92 -12.85,-3.11 -31.29,-8.83 -47.3,-14.77 -77.59,-27.84 -18.27,-7.89 -31.75,-15.19 -49.27,-24.24l-21 -11.76c-1.39,2.62 -2.47,5.69 -3.78,8.4 -3.68,7.58 -7.33,17.29 -11.2,25.34 -6.33,13.18 -16.19,36.82 -22.41,50.68l-7.5 16.87c-6.45,15.85 -15.89,34.88 -22.56,50.95 -2.43,5.84 -4.89,11.12 -7.46,16.9l-22.42 50.67c-1.27,2.97 -2.4,5.52 -3.76,8.43 -0.68,1.45 -1.23,2.77 -1.81,4.07l-5.65 12.83c-3.28,7.86 -5.94,13.17 -9.01,21.65 -0.49,1.35 -1.16,3.4 -1.73,4.57 18.51,0 52.99,4.87 71.65,7.74 3.02,0.46 7.01,1.44 9.89,1.5z"/>
   <path class="fil0" d="M223.05 104.59c-1.31,0.96 -17.24,27.26 -18.35,29.12l-40.86 65.83c-7.23,12.08 -15.73,24.86 -22.84,36.81l-36.49 58.86c-1.59,2.51 -2.8,4.78 -4.36,7.4 -2.19,3.67 -2.34,3.12 0.24,8.22l15.54 32.34c1.84,-1.35 12.59,-27.13 13.58,-29.26 1.15,-2.47 2.28,-4.77 3.28,-7.22 0.99,-2.45 2.3,-4.96 3.36,-7.56 3.64,-8.96 12.35,-27.64 16.75,-37.44 4.82,-10.73 12.05,-27.61 16.8,-37.39l53.35 -119.71z"/>
   <path class="fil0" d="M218.85 99.97l-54.37 66.19c-0.69,0.89 -1.19,1.52 -1.86,2.34l-48.78 59.59c-1.21,1.55 -2.56,3.05 -3.78,4.62l-7.56 9.24c-1.15,1.48 -2.75,3.08 -3.78,4.62 0.07,0.07 0.17,0.09 0.19,0.23 0.03,0.13 0.15,0.18 0.19,0.23l3.06 4.5c1.43,2.15 9.66,13.95 10,15.21l0.84 0c0.39,-1.66 5.1,-8.44 6.32,-10.48 1.03,-1.72 2.29,-3.36 3.32,-5.08l14.89 -23.33c8.11,-12.38 16.69,-26.82 24.86,-38.98l19.99 -31.26c9.11,-14.56 20.55,-32.99 29.91,-46.96 1.17,-1.74 6.19,-9.29 6.56,-10.67z"/>
   <path class="fil0" d="M273.03 94.09c2.33,0.19 5.8,2.66 8.82,3.36 4.2,-6.27 17.7,-17.98 24.78,-22.68 4.81,-3.19 9.62,-6.13 16.98,-6.99 6.56,-0.76 12.53,4.98 13.68,9.93 -3.54,0.82 -17.33,11.06 -20.9,14.38 -3.61,3.36 -12.28,11 -13.96,14.18l8.82 3.78c1.66,-2.48 10.78,-11.82 13.2,-13.68 1.46,-1.13 2.26,-1.92 3.66,-3.06 4.12,-3.33 7.16,-5.84 12.12,-8.46l1.8 12.06c0.7,5.34 0.81,13.91 0.73,19.88l-0.47 9.26c-0.12,1.9 -1.9,2.72 6.34,2.9l0.84 -17.22c0.23,-4.33 -1.09,-21.15 -1.99,-25.74 -0.82,-4.17 -1.94,-4.26 2.23,-5.11 17.77,-3.63 20.25,16.27 21.96,31.74 0.6,5.38 0.09,15.68 0.08,22.22 -0.01,4.94 -2.13,6.23 2.05,6.32 2.2,0.04 2.46,0.35 4.23,0.39 0,-18.01 4.36,-60.65 -17.26,-67.59 -5.03,-1.61 -12.32,-1.33 -16.76,0.8 -0.65,-2.79 -3.67,-7.25 -5.55,-9.15 -2.32,-2.33 -6.79,-4.7 -10.04,-5.08 -13.07,-1.55 -26.89,7.07 -36.36,14.78l-12 10.69c-1.92,1.92 -6.43,5.49 -7.04,8.09z"/>
   <path class="fil1" d="M122.66 381.41c0,1.5 0.4,0.11 0.14,2.22 -0.38,3.04 -0.42,5.28 -1.28,6.61 -1.28,1.97 0.83,2.2 -0.66,5.77 -0.8,1.92 -0.33,1.23 -0.71,3.04l-0.84 0c0,-2.34 0.1,-1.52 -0.58,-3.2 -4.89,-12.22 -11.54,-9.24 -15.81,-11.5 -2.21,3.31 -2.58,1.39 -2.29,10.02 0.03,1.03 -0.05,1.9 0.46,3.6 0.85,2.84 -0.31,2.19 0.13,7.39 0.36,4.3 0.8,3.92 0.99,7.52 0.06,1.16 -0.04,2.66 0.22,3.56 0.46,1.63 0.2,-0.23 0.62,1.38 0.47,1.81 0.16,0.11 -0.21,1.68 -0.56,2.42 0.96,5.2 1.25,7.39 0.09,0.7 -0.54,5.82 3.84,4.52 2.94,-0.87 2.68,-1.68 3.21,-3.57 1.38,-4.99 0.09,-1.57 0.45,-5.03l-0.39 -10.36c-0.16,-4.46 -1.12,-10.19 -1.12,-14.23l4.48 9.38c0.77,1.41 0.93,1.28 1.59,3.03l2.25 6.6c0.18,0.92 0.18,1.13 0.22,1.5 0.33,3.61 3.27,3.83 5.41,2.72 1.99,-1.03 2.09,-1.44 2.64,-3.28 1.18,-3.94 3.99,-19.32 3.99,-22.89 1.17,1.35 1.21,3.03 1.63,4.9 0.26,1.16 -0,-0.07 0.32,1.11l3.43 12.56c0.49,1.98 0.73,3.63 1.34,5.38l1.17 3.82c0.19,0.62 0.16,0.5 0.25,0.99 1.67,8.8 9.5,6.51 9.5,2.75l-4.32 -17.97c-0.18,-0.7 -0.22,-0.57 -0.42,-1.42l-2.35 -9.22c-1.25,-4.94 -2.42,-9.55 -5.96,-13.37l-2.12 -2.08c-2.04,-2.63 1.09,-2.22 -2.97,-3.69l-1.06 -0.66c-0.63,-0.46 -4.68,-4.45 -6.15,-0.04l-0.28 3.08z"/>
   <path class="fil1" d="M401.57 348.22c0,1.87 0.34,0.66 0.14,2.65l-0.52 7.05c-0.34,4.55 -1.54,-1.52 -0.9,5.11 0.18,1.89 -0.93,2.6 -1.02,4.21 -0.07,1.09 0.27,0.69 -1.05,1.58 -0.26,-3.08 -2.06,-7.04 -4.03,-9.41l-2.51 -2.11c-2.73,-2.2 -6.88,-1.61 -9.84,-3.18 -2.74,4.1 -2.4,1.69 -2.23,5.99 0.06,1.62 -0.54,1.28 -0.32,2.95l0.7 4.67c0.75,2.7 -0.17,5.81 0.28,9.38 0.17,1.32 0.66,3.58 0.72,5.16 0.16,3.7 0.7,4.34 0.77,5.49 0.12,1.96 -0.43,2.66 0.26,5.25 0.27,1.01 0.47,1.38 0.69,2.28 0.53,2.19 -1.01,7.55 4.93,5.39 1.74,-0.63 2.37,-2.47 2.78,-4.27 0.25,-1.08 -0.19,-2.14 -0.19,-2.37 0,-2 0.37,-1.21 0.28,-3.17l-1.08 -16.19c-0.54,-2.5 -0.46,-4.1 -0.46,-7.1 1.38,1.01 2.38,4.58 2.95,6.29l5.01 11.38c0.7,2.27 -0.31,7.26 4.58,6.45l0.52 -0.16c2.25,-0.84 3.02,-1.96 3.62,-4.36l0.47 -3.25c1.03,-3.79 3.34,-15.25 3.43,-19.28 0.06,0.09 0.12,0.13 0.14,0.28l7.54 27.75c1.5,3.12 1.7,7.78 6.83,7.03 2.59,-0.37 3.25,-2.46 2.53,-4.59l-4.52 -18.93c-1.18,-7.05 -3.95,-17.81 -8.96,-22.67l-1.1 -1c-1.88,-2.33 0.9,-2.44 -2.84,-3.88l-2.66 -1.55c-3.71,-3.07 -4.95,1.13 -4.95,1.18z"/>
   <path class="fil1" d="M218.43 359.99c0.37,0.57 0.11,-0.03 0.35,0.92 0,0.02 0.19,1.15 0.19,1.15 0.11,1.01 0.04,1.61 0.07,2.56 0.05,1.83 0.54,2.41 0.32,3.77 -0.56,1.02 -0.34,0.23 -0.11,2.1l2.12 18.49c-2.52,0 -3.12,-0.38 -4.66,0.8l-2.91 2.56c-0.03,-1.52 -0.46,-4.64 -0.67,-6.5l-2.41 -18.7c-1.35,-2.54 0.03,-3.03 -1.13,-5.02 -1.86,-3.18 -6.56,-3.67 -8.45,-0.89 -1.7,2.5 -0.78,1.45 -0.31,3.81 -1.01,3.46 0.75,9.12 0.77,12.2 0.04,5.62 0.93,3.92 0.48,6.99l0.4 3.45c0.7,5.31 2.02,15.28 3.27,19.88 0.24,0.88 0.87,12.54 4.23,13.82 1.24,0.47 2.29,-0.06 4.23,-0.06 2.34,-4.42 1.1,-1.02 1.4,-4.48 0.25,-2.83 0.25,-3.62 -0.07,-6.5 -0.51,-4.54 -0.25,-9.47 -0.9,-12.54 0.64,0 1.43,0.05 2.05,-0.05l1.86 -0.66c1.29,-0.49 2.57,-0.94 4.07,-0.97 0,5.24 1.11,8.45 2.28,13.26l2.34 13.62c4.28,0.1 5.92,1.88 5.9,-9.26 -0.01,-4.9 -1.27,-10.74 -1.28,-14.69l-2.95 -25.65c-0.31,-1.94 -0.1,-1.83 -0.41,-3.4l-1.85 -7.91 -1.27 -1.92c-1.39,-1.85 -2.22,-3.99 -5.29,-4.8 0.22,1.03 0.15,0.74 -0.33,1.37 -0.04,0.05 -0.15,0.13 -0.19,0.19 -0.9,1.14 -0.8,1.55 -1.15,3.07z"/>
   <path class="fil1" d="M288.58 374.55c0.2,2.68 0.4,2.1 0.04,4.33l0.44 4.2c-0.79,1.4 -0.16,1.8 0.19,3.52 0.33,1.64 0.14,2.69 0.01,4.27l4.5 22.74c0.48,2.04 0.76,2.78 3.4,2.97 0.08,0 0.2,0 0.29,0.01l0.61 0.03c5.55,0.3 4.04,-2.25 3.59,-5.4 -0.11,-0.76 -0.05,-1.1 -0.2,-1.93 -0.74,-4.02 -0.93,-0.1 -1.21,-9.48 -0.03,-1.15 -0.31,-2.43 -0.31,-4.12 1.19,0.32 1.42,0.69 2.44,1.34 0.94,0.6 1.72,0.93 2.68,1.52l3.39 1.77c4.67,1.95 10.98,0.98 13.33,-2.53 -2.3,-3.44 -2.18,-0.1 -2.94,-2.94 -2.35,1.25 -1.96,0.72 -4.67,0.48 -3.96,-0.36 -2.03,-0.23 -4.2,-2.12 -0.41,-0.36 -0.04,-0.17 -0.76,-0.5 -1.5,-0.7 -1.89,0.06 -3.17,-1.45 -1.33,-1.56 -1.17,-2.76 -1.88,-4.39 0.93,-1.75 -0.18,-2.11 1.23,-2.94 0.2,-0.86 0.45,-1.53 0.8,-2.15l1.38 -1.98c0.34,-0.58 0.79,-1.53 1.2,-2.16 3.48,-5.34 5.05,-5.99 7.76,-9.25 0.52,-0.94 1.51,-2.2 2.42,-2.84 3.03,-2.14 3.36,-2.49 1.39,-4.56 -1.52,-1.6 -2.04,-1.74 -4.89,-1.53 -4.59,0.34 -6.39,1.26 -9.21,5.57l-3.9 5.34c-1.01,1.5 -0.42,2.02 -1.98,2.63 -0.39,1.47 -0.16,0.95 -1.26,1.68l-0.07 -1.26c-0.31,-4.22 0.9,-9.52 0.29,-15.62 -0.45,-4.5 -2.79,-8.69 -7.03,-9.24 -3.31,5.18 -2.11,6.73 -3.09,12.86 -0.23,1.4 -0.69,5.98 -0.62,7.38 0.08,1.76 0.84,4.33 0.03,5.75z"/>
   <path class="fil1" d="M345.7 350.74c0.01,2.9 -0.27,3.21 -0.66,5.63l-1.5 11.94c-0.13,0.93 -0.19,1.84 -0.37,3 -0.35,2.19 -0.56,0.93 -0.63,2.49 -0.07,1.74 0.06,2.8 -0.36,5.33 -0.34,2.04 -0.73,3.67 -1.12,5.6l-2.22 10.54 -0.26 0.37c0,7.81 -1.13,4.09 1.5,9.47l1.02 1.5c4.28,-2.05 3.14,1.24 4.72,-6.39 0.72,-3.5 0.09,-6.07 3.13,-7.18 0.6,-0.22 0.99,-0.28 1.58,-0.52l4.33 -2.81c0.5,-0.47 0.66,-0.54 1.14,-0.96 0.98,-0.87 0.69,-0.06 1.06,-1.46 1.66,0.55 2.1,5.62 2.82,7.26 1.44,3.3 0.54,1.86 1.32,4.14l0.66 1.86c0.37,1.32 0.12,3.5 4.6,2.85 2.02,-0.29 2.32,-0.54 2.42,-2.65 0.18,-3.88 -1.42,-9.34 -2.41,-13.21 -1.27,-4.96 -0.96,-6.32 -3.16,-12.8l-1.71 -5.85c-0.17,-0.56 -0.27,-1.14 -0.51,-2.01 -1.3,-4.7 -3.94,-10.3 -6.72,-14.28l-2.29 -2.75c-0.45,-0.5 -0.85,-0.79 -1.33,-1.19l-1.67 -1.28c-2.85,0.66 -2.36,0.87 -3.36,3.37z"/>
   <path class="fil1" d="M163.82 425.93c6.99,-1.63 3.08,-3.91 5.94,-11.71l0.25 -0.59c0.87,-1.44 3.41,-1.45 5.57,-2.83 1.77,-1.13 3.45,-3.12 5.05,-4.19 0.22,2.62 4.62,13.47 4.62,15.54 8.75,2.04 6.92,-1.07 5.28,-11.29 -0.11,-0.72 -0.32,-1.07 -0.56,-1.82 -0.46,-1.45 -0.69,-2.57 -0.99,-4.07l-2.75 -11.11c-0.5,-1.52 -0.55,-2.57 -1.08,-3.99l-0.93 -2.79c-0.46,-1.34 -0.66,-2.51 -1.02,-3.62 -0.36,-1.1 -0.89,-2.29 -1.32,-3.3l-7.39 -11.51c-0.39,-0.33 -0.29,-0.22 -0.71,-0.55 -5.08,-4.06 -4.62,1.24 -5.53,6.13l-0.83 6.15c-0.54,2.94 -0.87,9.1 -1.65,11.35l-0.89 7.7c-0.9,6.2 -3.62,15.38 -3.51,19.64l0.04 1.84c0.25,1.52 0.19,0.45 0.89,1.91 0.04,0.09 0.09,0.2 0.13,0.29l1.39 2.81z"/>
   <path class="fil1" d="M252.45 375.01c0,4.44 -1.23,7.71 -1.33,8.49 -0.23,1.71 0.08,4.46 -0.92,9.07l-2.75 12.83c-0.68,5.01 -0.57,6.72 1.64,10.88 4.38,0 4.59,-1.15 4.86,-3.77l1.41 -7.6c0.55,-1.53 1.2,-1.48 2.65,-1.98 5.02,-1.71 5.08,-3.39 8.31,-5.55 0.75,3.2 4.62,13.59 4.62,15.54 9.49,2.21 6.41,-2.43 5.58,-8.94 -0.71,-5.55 -1.14,-4.52 -1.75,-7.49 -0.24,-1.18 -0.27,-1.73 -0.5,-2.86l-4.01 -14.73c-0.99,-1.91 -1.38,-4.77 -2.39,-7.02 -1.16,-2.59 -1.75,-3.6 -3.01,-5.81 -1.95,-3.41 -0.95,-2.33 -3.49,-5.34 -9.44,-11.22 -6.26,10.43 -8.92,14.29z"/>
   <path class="fil0" d="M258.33 195.32c0,14.66 5.71,24.56 15.44,32.45 12.46,10.1 22.79,2.19 22.79,-4.31 0,-5.17 -1.69,-7.35 -5.63,-10.33 -0.9,-0.68 -1.94,-1.35 -2.78,-1.84 -4.22,-2.47 -5.92,-2.03 -12.24,-6.67 -9.09,-6.67 -13.38,-14.82 -13.38,-26.53 0,-2.56 0.42,-3.06 0.42,-5.46l-1.83 4.89c-1.56,5.25 -2.79,12.16 -2.79,17.8z"/>
   <path class="fil0" d="M315.04 207.51c0,4.53 0.09,8.17 4.2,11.76 13.82,12.1 30.7,-7.28 19.03,-19.45 -8.79,-9.17 -23.22,-1.38 -23.22,7.68z"/>
   <path class="fil0" d="M247.41 233.13c0,10.43 1.83,19.78 6.44,28.43 8.71,16.35 30.4,18.92 37.67,5.18 -6.07,1.41 -3.02,1.68 -10.92,1.68 -13.46,0 -22.29,-13.24 -26.59,-24.24 -1.66,-4.26 -3.43,-11.89 -4,-16.58 -0.58,-4.76 -0.05,-8.22 -1.33,-9.17 0,2.81 -1.26,9.05 -1.26,14.7z"/>
   <path class="fil0" d="M302.44 180.62c0,13.07 17.64,11.51 17.64,0.42 0,-11.53 -17.64,-11.36 -17.64,-0.42z"/>
   <path class="fil0" d="M291.1 157.94c0,7.71 10.92,7.83 10.92,0.42 0,-7.86 -10.92,-6.61 -10.92,-0.42z"/>
   <path class="fil1" d="M258.33 438.96c0,4.51 -1.32,8.82 5.46,8.82 2.4,0 5.46,-2.91 5.46,-5.04 0,-6.35 -6.9,-5.91 -10.92,-3.78z"/>
   <path class="fil1" d="M277.65 438.96c-1.13,0.09 -1.14,0.2 -2.1,0.42 0.14,1.69 0.69,2.94 1.01,4.87 0.43,2.6 -0.25,3.48 2.34,3.54 0.66,-1.38 0.34,-1.5 0,-2.94 1.09,0.52 2.67,0.81 4.08,1.41 1.92,0.81 2.4,1.04 3.48,-0.57 -0.94,-1.28 -3.39,-1.72 -5.04,-2.1 1.37,-1.87 5.27,-2.32 3.36,-6.3 -0.28,-0.28 -6.36,-1.58 -7.14,1.68z"/>
   <path class="fil1" d="M292.78 438.54c-0.59,2.53 0,0.73 0,2.94 0,1.36 -0.36,0.32 -0.84,2.1 1.07,1.46 0.37,0.28 1.38,1.14 0.61,0.52 0.83,0.97 1.48,1.46 2.34,1.78 12.26,1.99 8.91,-3.03 -3.87,0.9 0.56,2.1 -4.2,2.1 -1.71,0 -2.77,-0.38 -3.78,-1.26 5.02,-1.17 6.1,-0.53 6.3,-2.94 -1.32,-0.64 -2.49,-0.04 -3.87,0.35 -1.98,0.57 -2.74,1.2 -3.27,-0.78 3.19,-0.07 6.17,-1.06 8.82,-1.68l0 -1.68c-3.08,0 -4.92,1.26 -10.92,1.26z"/>
   <path class="fil0" d="M304.15 386.87c5.75,1.39 11.2,2.92 17.02,4.37 3.12,0.78 5.87,1.56 8.66,2.26 2.36,0.6 6.43,2.06 8.73,2.14l0.26 -0.37 -33.45 -11.34c-1.41,0.83 -0.3,1.18 -1.23,2.94z"/>
   <path class="fil1" d="M229.77 438.11c0,3.25 5.38,3.27 6.3,6.72 -1.16,0.55 -2.59,0.29 -3.44,-0.75 -1.54,-1.89 0.41,-1.94 -2.44,-2.61 -2.77,4.94 7.98,9.12 7.98,2.1 0,-1.17 -1.74,-2.42 -2.51,-2.95 -1.28,-0.89 -2.47,-1.17 -3.37,-2.51 1.97,-1.65 3.68,2.24 3.78,-2.1 -1.56,-0.13 -6.3,-0.75 -6.3,2.1z"/>
   <path class="fil1" d="M243.21 437.28c0.06,2.82 -0.79,1.68 3.78,1.68 0,2.24 -0.32,9.27 1.93,8.46 0.74,-0.27 0.43,0.11 0.78,-0.66 0.38,-0.82 -0.61,-5.48 -0.61,-8.65 4.05,-0.09 4.86,-2.86 1.27,-2.19 -2.29,0.43 -4.82,1.16 -7.15,1.35z"/>
   <polygon class="fil0" points="219.27,99.55 219.69,99.55 219.34,99.06 "/>
   <polygon class="fil0" points="223.47,103.75 223.89,103.75 223.54,103.26 "/>
   <polygon class="fil0" points="278.08,145.34 278.5,145.34 278.15,144.85 "/>
   <polygon class="fil0" points="219.27,99.55 218.85,99.97 "/>
   <polygon class="fil0" points="223.05,104.59 223.47,103.75 "/>
   <polygon class="fil0" points="278.08,145.34 -0,0 "/>
  </g>
 </g>
</svg>
